<?xml version="1.0" encoding="UTF-8"?>
<svg id="Layer_1" data-name="Layer 1" xmlns="http://www.w3.org/2000/svg" viewBox="0 0 289.9 286.87">
  <defs>
    <style>
      .cls-1 {
        fill: #fff;
      }
    </style>
  </defs>
  <path class="cls-1" d="m144.24,286.87C63.79,286.11-.62,221.51,0,142.07.63,62.26,67.18-.9,146.25,0c80.83.93,144.44,65.29,143.64,145.58-.74,74.97-61.77,140.61-145.66,141.28Zm-25.75-94.36c.64,1.48,1.21,2.99,1.92,4.43,3.65,7.43,7.33,14.84,11.02,22.26,1.96,3.94,1.55,7.29-2.21,10.02-2.24,1.63-4.32,3.5-7.57,6.16,5.86,4.61,10.63,8.36,14.12,11.1-2.56-2.78-6.32-6.87-10.62-11.53,1.84-1.55,3.36-3.08,5.12-4.25,4.57-3.03,5.19-6.88,2.94-11.61-2.99-6.28-5.67-12.71-8.89-18.87-1.47-2.8-3.92-5.09-5.93-7.61-.14-.92-.28-1.84-.47-3.14,4.74,1.3,9.29,2.78,13.94,3.75,3.73.78,5.57,2.76,6.53,6.39,4.49,16.97,9.19,33.88,13.78,50.82.7,2.6,1.21,5.25,1.81,7.88.42,0,.85,0,1.27,0,1.72-12.05,2.61-24.38,10.26-33.76,9.52,1.7,18.64,3.33,27.76,4.96.16-.61.32-1.22.48-1.83-19.02-.85-35.25-6.52-44.34-24.89.26,1.47.52,2.94.81,4.59-8.57-2.01-10.67-7.09-6.43-13.88.76-1.21,1.05-3.7.32-4.69-8.2-11.08.18-21.6.84-32.35,8.83-13.89,19.48-25.18,37.1-27.33,16.56-2.03,31.14,1.58,42.36,14.46,11.31,12.97,13.47,28.32,10.59,44.8-.3,1.74.02,3.87.79,5.47,2.28,4.72,1.34,8.23-2.79,11.73-6.38,5.4-12.48,11.14-18.28,16.37,3.04,7,5.85,13.45,8.24,18.96,1.11-1.84,2.22-4.27,3.88-6.25,2.23-2.67,4.93-4.94,7.35-7.45,29.75-30.74,40.04-67.93,32.67-109.12C253.87,45.6,178.5.83,107.96,22.35,49.45,40.19,12.39,97.64,20.72,158.34c3.32,24.21,13.3,45.71,29.3,64.33,2.65,3.08,5.03,6.38,7.62,9.68,3.26-11.03,6.44-22.34,10.04-33.51.63-1.95,2.74-4.05,4.68-4.85,5.36-2.19,11.04-3.57,16.47-5.61,1.75-.66,3.1-2.35,4.64-3.57-1.34-1.41-2.42-3.4-4.07-4.13-5.97-2.64-10.15-6.88-12.54-12.84-1.66-4.14-3.21-8.36-4.37-12.66-1.32-4.88-2.15-9.88-3.2-14.83.22,12.78,2.85,24.87,10.37,35.88-2.02.9-3.78,1.69-5.78,2.58-.43-1.86-1.05-3.3-1.04-4.74.04-4.29-1.31-6.18-6-4.76-2.11.64-4.57.11-7.21.11.79-3.61,1.19-6.93,2.27-10.01,1.17-3.32-.23-4.48-3.07-5.34-3.72-1.13-7.37-2.49-11.04-3.76-.34-.59-.67-1.17-1.01-1.76,4.5-3.37,9-6.75,13.11-9.83-5.18-8.86-12.54-11.23-21.07-13.28,4.34-3.05,7.73-5.41,11.09-7.81,8.16-5.83,8.28-6.37,1.95-14.11-2.96-3.63-6.19-7.04-9.9-11.23,6.78-.54,12.53-1.13,18.29-1.44,8.56-.45,9.13-1.1,6.52-9.54-1.23-4-2.79-7.9-4.64-13.07,7.41,2.67,13.7,4.93,21.1,7.6,1.89-7.85,3.72-15.41,5.73-23.78,5.5,6.48,10.6,12.49,15.31,18.03,7.47-5.71,14.6-11.16,22.4-17.13.64,8.68,1.15,15.74,1.7,22.8.28,3.68,1.87,4.94,5.62,3.47,5.03-1.98,10.22-3.57,16.34-5.67-4.31,7.68-8.12,14.46-12.25,21.82,7.44,1.23,13.75,2.28,21.53,3.57-6.11,5.57-11.31,10.32-17.15,15.65,6.53,2.88,11.95,5.26,17.37,7.65.03.45.06.9.08,1.35-7.43,3.43-14.85,6.87-23.15,10.7,4.86,3.3,9.17,6.22,14.06,9.55-2.96,1.42-5.33,3.05-7.95,3.71-5.37,1.36-6.65,3.99-3.86,8.8.57.98.35,2.41.49,3.6q-9.12,1.6-4.65,9.85c-3.21,1.58-6.58,2.92-9.6,4.82-3.3,2.07-6.15,4.83-9.41,6.98-2.61,1.72-3.3,3.74-1.62,6.24,1.16,1.72,2.81,3.11,4.24,4.64Zm-29.72,2.79c-.42-.17-.85-.33-1.27-.5-3.33,8.53-6.51,17.12-10.05,25.56-1.57,3.74-.46,6.24,2.25,8.72,2.69,2.46,5.16,5.14,7.86,7.86,1.9-3.55-1.86-4.48-3.54-5.99-6.3-5.68-6.39-5.58-3.64-13.7.74-2.19,1.43-4.39,2.27-6.54,2-5.15,4.08-10.27,6.12-15.41Z"/>
</svg>